#!OML:ASF E:\Mandelcareful walks\Project 1\Capture day 1\Session 1\Subject1.ASF
:FULLY-SPECIFIED
:DEGREES
1247
root -7.52439 14.7394 -6.83807 16.4973 -1.55059 9.66968
lowerback 29.7847 -2.39218 6.03013
upperback 9.2839 -1.47854 -2.04244
thorax -6.06161 -0.640625 -5.27316
lowerneck -24.7618 12.5342 5.78304
upperneck 23.6961 23.4836 -23.2483
head 16.9484 7.74891 -5.22374
rclavicle 1.19271e-014 3.81667e-014
rhumerus -23.6309 27.3035 -90.1193
rradius 49.0862
rwrist -66.2064
rhand 4.38061 -39.6124
rfingers 7.12502
rthumb 29.779 -67.2395
lclavicle 1.19271e-014 3.81667e-014
lhumerus -164.666 -102.228 257.098
lradius 58.0227
lwrist 4.31361
lhand -23.799 -11.5287
lfingers 7.12502
lthumb 2.6715 18.4343
rfemur -50.7834 -9.29747 1.65496
rtibia 67.864
rfoot -26.8811 -12.1953
rtoes -11.9794
lfemur -56.3636 22.1908 -20.457
ltibia 61.8114
lfoot -12.7287 5.34753
ltoes -28.2731
1248
root -7.43745 14.7333 -6.74986 16.5392 -1.95198 9.83481
lowerback 30.2172 -2.34267 5.91185
upperback 9.34815 -1.44383 -2.23392
thorax -6.18808 -0.624622 -5.43366
lowerneck -24.3341 12.7201 5.97464
upperneck 23.6545 23.7163 -23.3712
head 16.9361 7.89024 -5.25356
rclavicle -1.51076e-014 -6.36111e-015
rhumerus -23.9424 26.783 -90.2689
rradius 49.6209
rwrist -66.8231
rhand 3.50714 -39.9816
rfingers 7.12502
rthumb 28.9451 -67.7548
lclavicle -1.51076e-014 -6.36111e-015
lhumerus -165.049 -102.234 257.491
lradius 58.1373
lwrist 4.25963
lhand -23.9276 -11.8815
lfingers 7.12502
lthumb 2.54728 18.083
rfemur -50.472 -9.29313 1.05801
rtibia 67.7313
rfoot -27.0876 -12.0656
rtoes -12.4797
lfemur -57.2287 22.0346 -21.0676
ltibia 59.4808
lfoot -12.2745 6.21289
ltoes -28.7186
1249
root -7.34294 14.7176 -6.66342 16.6015 -2.58487 9.8686
lowerback 30.6473 -2.13739 5.54745
upperback 9.45381 -1.28252 -2.34559
thorax -6.24507 -0.547663 -5.40536
lowerneck -24.0823 12.8314 6.14545
upperneck 23.5582 23.8695 -23.5936
head 16.9441 7.97563 -5.33794
rclavicle -1.59028e-015 -6.36111e-015
rhumerus -23.9788 26.2807 -90.2445
rradius 49.771
rwrist -66.874
rhand 3.52978 -39.9338
rfingers 7.12502
rthumb 28.9667 -67.7032
lclavicle -1.59028e-015 -6.36111e-015
lhumerus -165.434 -102.389 258.033
lradius 58.2027
lwrist 4.22402
lhand -24.1712 -12.2961
lfingers 7.12502
lthumb 2.312 17.6711
rfemur -50.3656 -9.06597 0.530147
rtibia 67.6349
rfoot -27.0931 -12.2734
rtoes -14.3647
lfemur -58.2021 22.2147 -21.7545
ltibia 57.4345
lfoot -11.7723 7.16271
ltoes -28.3624
1250
root -7.24414 14.7029 -6.57324 16.4739 -2.95475 9.75431
lowerback 31.3173 -2.04336 5.30077
upperback 9.5842 -1.21144 -2.40967
thorax -6.39464 -0.514813 -5.36233
lowerneck -24.0357 12.8648 6.0354
upperneck 23.56 23.9036 -23.4708
head 16.8932 7.99652 -5.25627
rclavicle 1.59028e-015 2.38542e-014
rhumerus -24.0046 25.8745 -90.2339
rradius 49.8088
rwrist -66.6307
rhand 3.85335 -39.8469
rfingers 7.12502
rthumb 29.2757 -67.5629
lclavicle 1.59028e-015 2.38542e-014
lhumerus -166.286 -102.582 258.943
lradius 58.5268
lwrist 4.14104
lhand -24.3185 -11.8362
lfingers 7.12502
lthumb 2.16972 18.1325
rfemur -49.9124 -8.88824 0.151731
rtibia 67.5364
rfoot -27.1855 -12.326
rtoes -15.7037
lfemur -58.9948 22.2415 -22.2435
ltibia 55.6489
lfoot -11.4173 7.37412
ltoes -26.9923
1251
root -7.12277 14.6724 -6.48313 16.5854 -3.43302 9.41102
lowerback 32.0179 -1.99346 5.30455
upperback 9.27884 -1.11152 -2.75691
thorax -6.46485 -0.448104 -5.36028
lowerneck -24.1101 12.9624 6.1479
upperneck 23.6802 24.0017 -23.3758
head 16.9839 8.0391 -5.21023
rclavicle 3.18055e-015 8.74653e-015
rhumerus -24.154 25.6503 -90.3483
rradius 50.005
rwrist -66.6718
rhand 3.7179 -40.3801
rfingers 7.12502
rthumb 29.1463 -68.1186
lclavicle 3.18055e-015 8.74653e-015
lhumerus -167.098 -102.75 259.491
lradius 59.0939
lwrist 3.89604
lhand -24.1851 -11.1454
lfingers 7.12502
lthumb 2.29856 18.8219
rfemur -49.8435 -8.8021 -0.0257762
rtibia 67.4904
rfoot -27.1468 -12.3154
rtoes -17.2044
lfemur -60.1281 22.2184 -22.5726
ltibia 54.244
lfoot -11.2153 8.43811
ltoes -27.7021
1252
root -6.98775 14.6419 -6.38704 16.6853 -3.92147 8.98308
lowerback 32.3105 -1.90545 5.28988
upperback 9.33853 -1.00679 -2.85469
thorax -6.50372 -0.397916 -5.4885
lowerneck -24.0938 13.0705 6.28377
upperneck 23.685 24.1066 -23.3757
head 17.0247 8.09358 -5.20259
rclavicle 1.27222e-014 -2.38542e-014
rhumerus -24.2291 25.5948 -90.3421
rradius 50.1704
rwrist -66.9075
rhand 3.68695 -40.8308
rfingers 7.12502
rthumb 29.1168 -68.5744
lclavicle 1.27222e-014 -2.38542e-014
lhumerus -167.686 -102.935 260.344
lradius 59.0916
lwrist 3.36539
lhand -24.1587 -11.1316
lfingers 7.12502
lthumb 2.32404 18.8355
rfemur -49.7256 -8.76337 -0.145803
rtibia 67.4315
rfoot -27.1535 -12.372
rtoes -18.8155
lfemur -61.2809 22.1511 -22.7156
ltibia 53.3072
lfoot -10.6568 8.11353
ltoes -29.5406
1253
root -6.84464 14.5931 -6.28504 16.5937 -4.44492 8.69633
lowerback 32.7804 -1.74268 4.98781
upperback 9.36228 -0.890967 -2.95775
thorax -6.6461 -0.346645 -5.47107
lowerneck -23.8871 13.1622 6.46963
upperneck 23.6473 24.1082 -23.2727
head 16.9581 8.14055 -5.19073
rclavicle 1.03368e-014 -1.27222e-014
rhumerus -24.2485 25.5106 -90.3063
rradius 50.0926
rwrist -67.1391
rhand 3.98877 -40.2676
rfingers 7.12502
rthumb 29.405 -67.961
lclavicle 1.03368e-014 -1.27222e-014
lhumerus -168.276 -102.915 261.043
lradius 59.2039
lwrist 3.20587
lhand -24.233 -11.771
lfingers 7.12502
lthumb 2.25234 18.1969
rfemur -49.4412 -8.69069 -0.525902
rtibia 67.4818
rfoot -27.2796 -12.3257
rtoes -20.2741
lfemur -62.1339 22.1915 -22.9462
ltibia 53.1853
lfoot -8.86644 6.88323
ltoes -30.468
1254
root -6.69011 14.5429 -6.1801 16.3804 -5.01916 8.39143
lowerback 33.3786 -1.49983 4.73523
upperback 9.32306 -0.669518 -3.16658
thorax -6.89514 -0.247855 -5.63152
lowerneck -23.6156 13.1686 6.85799
upperneck 23.7449 23.8975 -23.0427
head 16.8975 8.12641 -5.2303
rclavicle -1.59028e-014 0
rhumerus -24.2377 24.9383 -90.3321
rradius 49.7346
rwrist -67.196
rhand 4.57427 -39.5281
rfingers 7.12502
rthumb 29.9638 -67.1219
lclavicle -1.59028e-014 0
lhumerus -168.705 -102.415 261.434
lradius 59.3707
lwrist 3.20971
lhand -23.7829 -11.975
lfingers 7.12502
lthumb 2.68703 17.9879
rfemur -49.0055 -8.61115 -0.964696
rtibia 67.5178
rfoot -27.3335 -12.113
rtoes -21.6931
lfemur -62.4903 22.0043 -22.4957
ltibia 53.9476
lfoot -7.04538 6.96003
ltoes -27.8302
1255
root -6.51699 14.4809 -6.06319 16.1153 -5.61675 7.99433
lowerback 33.9385 -1.30286 4.5648
upperback 9.25846 -0.485344 -3.36742
thorax -7.15898 -0.168427 -5.81818
lowerneck -23.3342 13.1692 7.14973
upperneck 23.8339 23.7309 -22.8545
head 16.8364 8.11774 -5.26015
rclavicle -1.35174e-014 -7.95139e-015
rhumerus -24.2833 24.4989 -90.3471
rradius 49.2584
rwrist -67.0587
rhand 5.09869 -39.5248
rfingers 7.12502
rthumb 30.4641 -67.027
lclavicle -1.35174e-014 -7.95139e-015
lhumerus -168.978 -101.939 261.795
lradius 59.348
lwrist 3.21403
lhand -23.2049 -11.3522
lfingers 7.12502
lthumb 3.24519 18.6029
rfemur -48.5017 -8.62316 -1.4148
rtibia 67.528
rfoot -27.4017 -11.6818
rtoes -22.6441
lfemur -62.4728 21.7567 -22.072
ltibia 55.5146
lfoot -6.78999 7.44921
ltoes -24.8077
1256
root -6.33819 14.4217 -5.94624 15.8612 -6.2128 7.599
lowerback 34.4205 -1.19492 4.02977
upperback 9.1874 -0.520689 -3.38798
thorax -7.41909 -0.195532 -5.53887
lowerneck -23.0774 13.3496 7.10433
upperneck 23.717 23.9785 -22.8709
head 16.768 8.23881 -5.19061
rclavicle -5.56597e-015 4.8901e-014
rhumerus -24.2906 24.9164 -90.3011
rradius 48.7437
rwrist -66.9417
rhand 5.26297 -39.9528
rfingers 7.12502
rthumb 30.6208 -67.4258
lclavicle -5.56597e-015 4.8901e-014
lhumerus -169.582 -102.221 262.672
lradius 59.103
lwrist 3.33044
lhand -23.1641 -10.613
lfingers 7.12502
lthumb 3.2846 19.3414
rfemur -47.9299 -8.56393 -1.89087
rtibia 67.3965
rfoot -27.5292 -11.3426
rtoes -23.5948
lfemur -62.5219 21.5322 -21.6694
ltibia 57.4123
lfoot -7.47553 7.63165
ltoes -20.5155
1257
root -6.15097 14.3826 -5.82689 15.5464 -6.8454 7.36568
lowerback 34.8803 -1.06142 3.29645
upperback 9.1535 -0.603713 -3.46521
thorax -7.63349 -0.240151 -5.1964
lowerneck -22.9133 13.6178 7.16357
upperneck 23.5565 24.3548 -23.0038
head 16.772 8.40523 -5.14533
rclavicle -1.11319e-014 4.37326e-015
rhumerus -24.097 25.1027 -90.3205
rradius 47.9921
rwrist -66.6096
rhand 5.41904 -40.4163
rfingers 7.12502
rthumb 30.7696 -67.8615
lclavicle -1.11319e-014 4.37326e-015
lhumerus -169.557 -102.544 262.954
lradius 58.6165
lwrist 3.39576
lhand -23.2118 -9.86477
lfingers 7.12502
lthumb 3.23854 20.0904
rfemur -47.1122 -8.48433 -2.60417
rtibia 67
rfoot -27.5816 -10.9402
rtoes -24.8255
lfemur -62.7653 21.2626 -21.5618
ltibia 59.274
lfoot -7.84053 7.75071
ltoes -16.697
1258
root -5.96025 14.3632 -5.70192 15.3658 -7.36614 6.92961
lowerback 35.275 -0.897987 2.85366
upperback 9.06415 -0.564419 -3.57975
thorax -7.87191 -0.228049 -5.09627
lowerneck -22.7605 13.8218 7.34494
upperneck 23.3926 24.5514 -23.0357
head 16.7315 8.51948 -5.12575
rclavicle -1.31198e-014 1.43125e-014
rhumerus -23.8983 24.7564 -90.4823
rradius 47.1091
rwrist -66.2153
rhand 5.61604 -40.8928
rfingers 7.12502
rthumb 30.9574 -68.3024
lclavicle -1.31198e-014 1.43125e-014
lhumerus -168.911 -102.328 262.505
lradius 57.8599
lwrist 3.8529
lhand -23.0577 -10.7425
lfingers 7.12502
lthumb 3.3874 19.2104
rfemur -46.199 -8.25961 -3.14198
rtibia 66.3666
rfoot -27.7882 -10.2576
rtoes -24.8543
lfemur -62.804 20.6502 -21.0114
ltibia 60.9658
lfoot -8.83029 7.94723
ltoes -11.7243
1259
root -5.77531 14.355 -5.57786 15.4188 -7.62643 6.03239
lowerback 35.5404 -0.788536 2.75887
upperback 8.90473 -0.457621 -3.50483
thorax -8.12901 -0.190027 -5.007
lowerneck -22.6887 13.9617 7.28034
upperneck 23.228 24.6905 -22.9421
head 16.6273 8.59543 -5.02553
rclavicle 9.54166e-015 -2.78299e-014
rhumerus -23.8341 24.4938 -90.648
rradius 46.2697
rwrist -66.1479
rhand 5.99856 -41.3114
rfingers 7.12502
rthumb 31.3219 -68.651
lclavicle 9.54166e-015 -2.78299e-014
lhumerus -168.24 -101.937 262.099
lradius 56.6986
lwrist 5.38615
lhand -22.9919 -14.3559
lfingers 7.12502
lthumb 3.45096 15.5959
rfemur -45.3192 -7.7854 -3.15187
rtibia 65.5593
rfoot -28.1279 -9.53708
rtoes -23.7796
lfemur -63.1013 20.108 -20.4273
ltibia 62.5496
lfoot -9.60059 8.47025
ltoes -14.4637
